<svg width="48" height="48" viewBox="0 0 48 48" fill="none" xmlns="http://www.w3.org/2000/svg">
<rect width="48" height="48" rx="24" fill="#FFF8E6"/>
<path d="M31 17L17 31M21 18.5C21 19.8807 19.8807 21 18.5 21C17.1193 21 16 19.8807 16 18.5C16 17.1193 17.1193 16 18.5 16C19.8807 16 21 17.1193 21 18.5ZM32 29.5C32 30.8807 30.8807 32 29.5 32C28.1193 32 27 30.8807 27 29.5C27 28.1193 28.1193 27 29.5 27C30.8807 27 32 28.1193 32 29.5Z" stroke="#F79009" stroke-width="2" stroke-linecap="round" stroke-linejoin="round"/>
</svg>
