<svg width="291" height="164" viewBox="0 0 291 164" fill="none" xmlns="http://www.w3.org/2000/svg">
<path fill-rule="evenodd" clip-rule="evenodd" d="M181.375 45.688C200.553 45.688 216.334 59.6675 216.334 78.0792C216.334 89.3307 211.754 98.0249 205.473 98.0249C201.229 98.0249 198.346 94.9564 198.346 91.206C198.346 87.2848 201.74 85.5803 201.74 78.5905C201.74 66.8273 192.576 58.9853 181.545 58.9853C170.854 58.9853 162.371 67.1686 162.371 77.9084C162.371 90.0125 171.024 95.1268 185.279 99.9003C201.74 105.356 216.334 112.174 216.334 132.121C216.334 150.021 202.25 164 182.565 164C163.557 164 147.776 150.362 147.776 132.632C147.776 126.665 151.17 123.938 155.073 123.938C158.976 123.938 162.201 126.495 162.371 131.439C162.541 142.52 171.365 150.703 182.395 150.703C194.102 150.703 201.74 143.202 201.74 133.485C201.74 122.403 193.256 117.801 178.832 113.198C162.031 107.742 147.776 100.241 147.776 79.4428C147.776 60.3493 162.371 45.688 181.375 45.688ZM32.0729 0C50.2307 0 64.9945 12.6155 65.3339 30.1749C65.5036 35.1184 61.9397 37.846 58.0368 37.846C54.3036 37.846 51.079 35.1184 50.9093 30.5158C50.7397 20.6279 42.4245 13.2973 31.9032 13.2973C22.0606 13.2973 14.5942 20.287 14.5942 29.8336C14.5942 40.2328 21.5516 44.8358 35.9762 50.1206C51.4187 55.7463 65.5036 62.3952 65.5036 82.1705C65.5036 99.3889 52.0974 113.198 33.4307 113.198C15.1032 113.198 0 100.241 0 82.6818C0 71.7713 5.26065 64.0997 10.3516 64.0997C14.7639 64.0997 17.4791 66.9978 17.4791 70.919C17.4791 74.3284 14.5942 75.8629 14.5942 82C14.5942 92.9106 23.4184 99.9003 33.4307 99.9003C43.952 99.9003 50.9093 92.5696 50.9093 83.7049C50.9093 72.7944 43.952 68.1914 29.5274 63.077C13.4061 57.2808 0 50.2911 0 31.0271C0 13.6382 13.9151 0 32.0729 0ZM106.64 45.688C126.664 45.688 140.749 60.6903 140.749 81.1477V106.037C140.749 110.299 137.355 113.198 133.452 113.198C129.379 113.198 125.985 110.299 125.985 106.037V81.6591C125.985 68.1914 118.349 58.9853 106.3 58.9853C95.6092 58.9853 87.1243 68.0209 87.1243 79.6133C87.1243 90.3534 95.4395 99.5594 105.961 99.5594C109.864 99.5594 111.561 98.5363 113.937 98.5363C117.161 98.5363 120.555 101.264 120.555 105.185C120.555 110.47 114.276 113.198 106.13 113.198C87.803 113.198 72.5305 98.3658 72.5305 79.6133C72.5305 60.1789 87.9727 45.688 106.64 45.688ZM257.131 45.688C275.965 45.688 290.223 58.8149 290.223 75.522C290.223 82 285.639 85.9208 278.172 85.9208H258.658C254.754 85.9208 251.871 83.1936 251.871 79.6133C251.871 76.2038 254.754 73.4762 258.658 73.4762H273.252C274.609 73.4762 275.629 72.7944 275.629 71.4304C275.629 66.4864 269.348 58.8149 257.641 58.8149C246.781 58.8149 237.953 68.1914 237.953 79.4428C237.953 90.8647 246.947 99.9003 258.148 99.9003C271.045 99.9003 275.289 92.2287 280.549 92.2287C284.963 92.2287 287.336 95.1268 287.336 98.3658C287.336 101.434 285.299 104.162 280.209 107.401C275.119 110.64 267.482 113.198 257.978 113.198C238.973 113.198 223.359 98.1954 223.359 79.4428C223.359 60.6903 238.463 45.688 257.131 45.688Z" fill="#00D639"/>
</svg>
