<svg width="25" height="25" viewBox="0 0 25 25" fill="none" xmlns="http://www.w3.org/2000/svg">
<g clip-path="url(#clip0_857_2898)">
<path d="M15.5504 5.5C16.5272 5.69057 17.4248 6.16826 18.1285 6.87194C18.8322 7.57561 19.3099 8.47326 19.5004 9.45M15.5504 1.5C17.5797 1.72544 19.472 2.63417 20.9167 4.07701C22.3613 5.51984 23.2724 7.41101 23.5004 9.44M22.5004 17.42V20.42C22.5016 20.6985 22.4445 20.9742 22.3329 21.2293C22.2214 21.4845 22.0577 21.7136 21.8525 21.9019C21.6473 22.0901 21.405 22.2335 21.1412 22.3227C20.8773 22.4119 20.5978 22.4451 20.3204 22.42C17.2433 22.0856 14.2874 21.0341 11.6904 19.35C9.27425 17.8147 7.22576 15.7662 5.69042 13.35C4.0004 10.7412 2.94866 7.77099 2.62042 4.68C2.59543 4.40347 2.6283 4.12476 2.71692 3.86162C2.80555 3.59849 2.94799 3.35669 3.13519 3.15162C3.32238 2.94655 3.55023 2.78271 3.80421 2.67052C4.0582 2.55833 4.33276 2.50026 4.61042 2.5H7.61042C8.09573 2.49522 8.56621 2.66708 8.93418 2.98353C9.30215 3.29999 9.5425 3.73945 9.61042 4.22C9.73704 5.18007 9.97187 6.12273 10.3104 7.03C10.445 7.38792 10.4741 7.77691 10.3943 8.15088C10.3146 8.52485 10.1293 8.86811 9.86042 9.14L8.59042 10.41C10.014 12.9135 12.0869 14.9864 14.5904 16.41L15.8604 15.14C16.1323 14.8711 16.4756 14.6858 16.8495 14.6061C17.2235 14.5263 17.6125 14.5555 17.9704 14.69C18.8777 15.0286 19.8204 15.2634 20.7804 15.39C21.2662 15.4585 21.7098 15.7032 22.027 16.0775C22.3441 16.4518 22.5126 16.9296 22.5004 17.42Z" stroke="#E9554A" stroke-width="2" stroke-linecap="round" stroke-linejoin="round"/>
</g>
<defs>
<clipPath id="clip0_857_2898">
<rect width="24" height="24" fill="white" transform="translate(0.5 0.5)"/>
</clipPath>
</defs>
</svg>
